# xmcd
# 
# Track frame offsets:
#     150
#     23588
#     46950
#     56822
# 
# Disc length: 1143
# 
# Revision: 2
# Processed by: cddbd v1.5.2PL0 Copyright (c) Steve Scherf et al.
# Submitted via: fre:ac v1.0.17
# 
DISCID=2b047504
DTITLE=Black Countess - Child Of The Demonic Moon
DYEAR=1999
DGENRE=Symphonic Black Metal
TTITLE0=Eleanor's Desire
TTITLE1=In The Abyss Of Fear
TTITLE2=Carpathian Legend
TTITLE3=The Queen Of The Fourth Dimension
EXTD=
EXTT0=
EXTT1=
EXTT2=
EXTT3=
PLAYORDER=
